<svg width="24" height="24" viewBox="0 0 24 24" fill="none" xmlns="http://www.w3.org/2000/svg">
<path fill-rule="evenodd" clip-rule="evenodd" d="M17.5679 16.2927L18.4559 14.5784H22.6919L23.9999 12.0001L21.3839 6.85718H17.6999L16.4279 4.30631H14.9999V2.5783H17.3279L18.5999 5.14289H20.5079L17.8799 0H12.7559V6.85718H14.8319L15.7079 8.57148H12.7559V12.0001H15.4679L16.7279 9.43548H20.0999L20.9639 11.1498H17.6039L16.3439 13.7144H12.7559V19.7213H16.8359L15.9719 21.4356H12.7559V24.0001H17.8799L21.8159 16.2927H19.3079L18.4319 18.007H14.9999V16.2927H17.5679Z" fill="#2196F3"/>
<path fill-rule="evenodd" clip-rule="evenodd" d="M6.43204 16.2927L5.54403 14.5784H1.30801L0 12.0001L2.61602 6.85718H6.30004L7.57205 4.30631H9.00005V2.5783H6.67204L5.40003 5.14289H3.49202L6.12004 0H11.2561V6.85718H9.16805L8.29205 8.57148H11.2561V12.0001H8.53205L7.27204 9.43548H3.90002L3.03602 11.1498H6.39604L7.65605 13.7144H11.2561V19.7213H7.16404L8.02805 21.4356H11.2561V24.0001H6.12004L2.18401 16.2927H4.69203L5.56803 18.007H9.00005V16.2927H6.43204Z" fill="#0D47A1"/>
</svg>
