<svg width="120" height="120" viewBox="0 0 120 120" fill="none" xmlns="http://www.w3.org/2000/svg">
<rect width="120" height="120" fill="white"/>
<path d="M42.8661 59.4644C43.8122 59.4644 44.7027 59.6036 45.5374 59.8818C46.3722 60.1462 47.1166 60.5357 47.7705 61.0505C48.4244 61.5653 48.967 62.1914 49.3983 62.9288C49.8435 63.6662 50.1357 64.494 50.2748 65.4123L46.9148 65.7044C46.6922 64.5914 46.2122 63.7497 45.4748 63.1792C44.7513 62.6088 43.847 62.3236 42.7618 62.3236C42.08 62.3236 41.454 62.4488 40.8835 62.6992C40.327 62.9357 39.847 63.2766 39.4435 63.7218C39.054 64.1671 38.7479 64.7097 38.5253 65.3497C38.3166 65.9897 38.2122 66.7062 38.2122 67.4992C38.2122 68.3479 38.3305 69.0923 38.567 69.7323C38.8035 70.3723 39.1235 70.9149 39.527 71.3601C39.9444 71.7914 40.4313 72.1184 40.9879 72.341C41.5444 72.5636 42.1427 72.6749 42.7827 72.6749C43.854 72.6749 44.7583 72.3966 45.4957 71.8401C46.2331 71.2697 46.7061 70.4418 46.9148 69.3566L50.2957 69.6488C50.1427 70.5671 49.8435 71.3879 49.3983 72.1114C48.967 72.8349 48.4244 73.454 47.7705 73.9688C47.1305 74.4697 46.3931 74.8592 45.5583 75.1375C44.7235 75.4018 43.8331 75.534 42.887 75.534C41.7461 75.534 40.6887 75.3531 39.7148 74.9914C38.7409 74.6157 37.8992 74.0871 37.1896 73.4053C36.48 72.7097 35.9235 71.8679 35.52 70.8801C35.1305 69.8784 34.9357 68.7514 34.9357 67.4992C34.9357 66.2331 35.1305 65.1062 35.52 64.1184C35.9235 63.1166 36.48 62.2749 37.1896 61.5931C37.8992 60.8975 38.734 60.3688 39.694 60.0071C40.6679 59.6453 41.7253 59.4644 42.8661 59.4644ZM55.7045 65.4331C55.941 65.141 56.2749 64.8836 56.7062 64.661C57.1515 64.4244 57.7288 64.3062 58.4384 64.3062C59.0645 64.3062 59.6349 64.4036 60.1497 64.5984C60.6645 64.7931 61.1028 65.0784 61.4645 65.454C61.8402 65.8297 62.1323 66.2957 62.341 66.8523C62.5497 67.3949 62.6541 68.014 62.6541 68.7097V75.3044H59.6071V69.294C59.6071 68.5984 59.4332 68.0697 59.0854 67.7079C58.7515 67.3323 58.2923 67.1444 57.708 67.1444C57.0958 67.1444 56.6088 67.3462 56.2471 67.7497C55.8854 68.1392 55.7045 68.661 55.7045 69.3149V75.3044H52.6575V59.0888H55.7045V65.4331ZM69.7332 64.3062C71.1941 64.3062 72.3072 64.6749 73.0724 65.4123C73.8376 66.1357 74.2202 67.214 74.2202 68.6471V75.3044H71.2776V74.4279C70.9715 74.7479 70.5889 75.0123 70.1298 75.221C69.6846 75.4297 69.1489 75.534 68.5228 75.534C67.4376 75.534 66.568 75.2627 65.9141 74.7201C65.2602 74.1775 64.9332 73.3844 64.9332 72.341C64.9332 71.7427 65.0515 71.2418 65.288 70.8384C65.5246 70.421 65.8376 70.0871 66.2272 69.8366C66.6306 69.5862 67.0898 69.4053 67.6046 69.294C68.1332 69.1688 68.6828 69.0923 69.2532 69.0644L71.1732 68.9601V68.5427C71.1732 67.4297 70.7072 66.8731 69.775 66.8731C69.2463 66.8731 68.8637 67.0192 68.6272 67.3114C68.3906 67.6036 68.2724 67.9305 68.2724 68.2923L65.2254 68.1671C65.2254 67.694 65.3298 67.2279 65.5385 66.7688C65.7472 66.3097 66.0463 65.8992 66.4359 65.5375C66.8254 65.1618 67.2985 64.8627 67.855 64.6401C68.4115 64.4175 69.0376 64.3062 69.7332 64.3062ZM69.5454 71.0679C69.0863 71.0957 68.7106 71.1931 68.4185 71.3601C68.1263 71.5271 67.9802 71.8053 67.9802 72.1949C67.9802 72.5566 68.0985 72.814 68.335 72.9671C68.5715 73.1062 68.8706 73.1757 69.2324 73.1757C69.7889 73.1757 70.248 73.0297 70.6098 72.7375C70.9854 72.4453 71.1732 72.0071 71.1732 71.4227V70.9636L69.5454 71.0679ZM80.8492 71.1514C80.8492 71.7497 81.0092 72.174 81.3292 72.4244C81.6631 72.661 82.0457 72.7792 82.4771 72.7792C82.6997 72.7792 82.8805 72.7723 83.0197 72.7584C83.1727 72.7305 83.3049 72.7027 83.4162 72.6749V75.3879C83.1936 75.4157 82.9571 75.4436 82.7066 75.4714C82.4701 75.4992 82.1431 75.5131 81.7257 75.5131C81.1414 75.5131 80.6057 75.4436 80.1188 75.3044C79.6318 75.1514 79.2144 74.9288 78.8666 74.6366C78.5327 74.3444 78.2684 73.9688 78.0736 73.5097C77.8927 73.0505 77.8023 72.5079 77.8023 71.8818L77.8231 67.1444H75.8614V64.5149H77.844L77.8649 60.9462H80.9118L80.891 64.5149H83.4162V67.1444H80.8701L80.8492 71.1514Z" fill="black"/>
<line x1="50.2399" y1="48.2608" x2="71.1544" y2="48.2608" stroke="black" stroke-width="2.6087"/>
<path d="M43.3044 54.4348H40.0905V48.4244L34.1635 38.8244H37.8992L41.6766 45.2313L45.454 38.8244H49.2105L43.3044 48.4244V54.4348Z" fill="black"/>
</svg>
