<svg width="120" height="120" viewBox="0 0 120 120" fill="none" xmlns="http://www.w3.org/2000/svg">
<rect width="120" height="120" fill="black"/>
<path d="M42.8661 59.4642C43.8122 59.4642 44.7027 59.6033 45.5374 59.8816C46.3722 60.1459 47.1166 60.5355 47.7705 61.0503C48.4244 61.5651 48.967 62.1912 49.3983 62.9285C49.8435 63.6659 50.1357 64.4938 50.2748 65.412L46.9148 65.7042C46.6922 64.5912 46.2122 63.7494 45.4748 63.179C44.7513 62.6085 43.847 62.3233 42.7618 62.3233C42.08 62.3233 41.454 62.4485 40.8835 62.699C40.327 62.9355 39.847 63.2764 39.4435 63.7216C39.054 64.1668 38.7479 64.7094 38.5253 65.3494C38.3166 65.9894 38.2122 66.7059 38.2122 67.499C38.2122 68.3477 38.3305 69.092 38.567 69.732C38.8035 70.372 39.1235 70.9146 39.527 71.3599C39.9444 71.7912 40.4313 72.1181 40.9879 72.3407C41.5444 72.5633 42.1427 72.6746 42.7827 72.6746C43.854 72.6746 44.7583 72.3964 45.4957 71.8399C46.2331 71.2694 46.7061 70.4416 46.9148 69.3564L50.2957 69.6485C50.1427 70.5668 49.8435 71.3877 49.3983 72.1112C48.967 72.8346 48.4244 73.4538 47.7705 73.9685C47.1305 74.4694 46.3931 74.859 45.5583 75.1372C44.7235 75.4016 43.8331 75.5338 42.887 75.5338C41.7461 75.5338 40.6887 75.3529 39.7148 74.9912C38.7409 74.6155 37.8992 74.0868 37.1896 73.4051C36.48 72.7094 35.9235 71.8677 35.52 70.8799C35.1305 69.8781 34.9357 68.7512 34.9357 67.499C34.9357 66.2329 35.1305 65.1059 35.52 64.1181C35.9235 63.1164 36.48 62.2746 37.1896 61.5929C37.8992 60.8972 38.734 60.3685 39.694 60.0068C40.6679 59.6451 41.7253 59.4642 42.8661 59.4642ZM55.7045 65.4329C55.941 65.1407 56.2749 64.8833 56.7062 64.6607C57.1515 64.4242 57.7288 64.3059 58.4384 64.3059C59.0645 64.3059 59.6349 64.4033 60.1497 64.5981C60.6645 64.7929 61.1028 65.0781 61.4645 65.4538C61.8402 65.8294 62.1323 66.2955 62.341 66.852C62.5497 67.3946 62.6541 68.0138 62.6541 68.7094V75.3042H59.6071V69.2938C59.6071 68.5981 59.4332 68.0694 59.0854 67.7077C58.7515 67.332 58.2923 67.1442 57.708 67.1442C57.0958 67.1442 56.6088 67.3459 56.2471 67.7494C55.8854 68.139 55.7045 68.6607 55.7045 69.3146V75.3042H52.6575V59.0885H55.7045V65.4329ZM69.7332 64.3059C71.1941 64.3059 72.3072 64.6746 73.0724 65.412C73.8376 66.1355 74.2202 67.2138 74.2202 68.6468V75.3042H71.2776V74.4277C70.9715 74.7477 70.5889 75.012 70.1298 75.2207C69.6846 75.4294 69.1489 75.5338 68.5228 75.5338C67.4376 75.5338 66.568 75.2625 65.9141 74.7199C65.2602 74.1772 64.9332 73.3842 64.9332 72.3407C64.9332 71.7425 65.0515 71.2416 65.288 70.8381C65.5246 70.4207 65.8376 70.0868 66.2272 69.8364C66.6306 69.5859 67.0898 69.4051 67.6046 69.2938C68.1332 69.1685 68.6828 69.092 69.2532 69.0642L71.1732 68.9599V68.5425C71.1732 67.4294 70.7072 66.8729 69.775 66.8729C69.2463 66.8729 68.8637 67.019 68.6272 67.3112C68.3906 67.6033 68.2724 67.9303 68.2724 68.292L65.2254 68.1668C65.2254 67.6938 65.3298 67.2277 65.5385 66.7685C65.7472 66.3094 66.0463 65.899 66.4359 65.5372C66.8254 65.1616 67.2985 64.8625 67.855 64.6399C68.4115 64.4172 69.0376 64.3059 69.7332 64.3059ZM69.5454 71.0677C69.0863 71.0955 68.7106 71.1929 68.4185 71.3599C68.1263 71.5268 67.9802 71.8051 67.9802 72.1946C67.9802 72.5564 68.0985 72.8138 68.335 72.9668C68.5715 73.1059 68.8706 73.1755 69.2324 73.1755C69.7889 73.1755 70.248 73.0294 70.6098 72.7372C70.9854 72.4451 71.1732 72.0068 71.1732 71.4225V70.9633L69.5454 71.0677ZM80.8492 71.1512C80.8492 71.7494 81.0092 72.1738 81.3292 72.4242C81.6631 72.6607 82.0457 72.779 82.4771 72.779C82.6997 72.779 82.8805 72.772 83.0197 72.7581C83.1727 72.7303 83.3049 72.7025 83.4162 72.6746V75.3877C83.1936 75.4155 82.9571 75.4433 82.7066 75.4712C82.4701 75.499 82.1431 75.5129 81.7257 75.5129C81.1414 75.5129 80.6057 75.4433 80.1188 75.3042C79.6318 75.1512 79.2144 74.9285 78.8666 74.6364C78.5327 74.3442 78.2684 73.9685 78.0736 73.5094C77.8927 73.0503 77.8023 72.5077 77.8023 71.8816L77.8231 67.1442H75.8614V64.5146H77.844L77.8649 60.9459H80.9118L80.891 64.5146H83.4162V67.1442H80.8701L80.8492 71.1512Z" fill="white"/>
<line x1="50.2399" y1="48.2606" x2="71.1544" y2="48.2606" stroke="white" stroke-width="2.6087"/>
<path d="M43.3044 54.4346H40.0905V48.4241L34.1635 38.8241H37.8992L41.6766 45.2311L45.454 38.8241H49.2105L43.3044 48.4241V54.4346Z" fill="white"/>
</svg>
