<svg width="24" height="24" viewBox="0 0 24 24" fill="none" xmlns="http://www.w3.org/2000/svg">
<path d="M21.928 11.607C21.726 11.119 21.293 11.002 21 10.974V8C21 6.897 20.103 6 19 6H13V4.61C13.305 4.336 13.5 3.942 13.5 3.5C13.5 3.10218 13.342 2.72064 13.0607 2.43934C12.7793 2.15804 12.3978 2 12 2C11.6022 2 11.2206 2.15804 10.9393 2.43934C10.658 2.72064 10.5 3.10218 10.5 3.5C10.5 3.942 10.695 4.336 11 4.61V6H4.99999C3.89699 6 2.99999 6.897 2.99999 8V10.997L2.91799 11.003C2.66596 11.0212 2.43017 11.1341 2.25801 11.3191C2.08585 11.504 1.99009 11.7473 1.98999 12V14C1.98999 14.2652 2.09535 14.5196 2.28288 14.7071C2.47042 14.8946 2.72477 15 2.98999 15H2.99999V20C2.99999 21.103 3.89699 22 4.99999 22H19C20.103 22 21 21.103 21 20V15C21.2652 15 21.5196 14.8946 21.7071 14.7071C21.8946 14.5196 22 14.2652 22 14V12.062C22.0115 11.9068 21.9869 11.7511 21.928 11.607ZM4.99999 20V8H19L19.001 11.996L19 12V14L19.001 14.005L19.002 20H4.99999Z" fill="black" fill-opacity="0.87"/>
<path d="M8.5 14C9.32843 14 10 13.1046 10 12C10 10.8954 9.32843 10 8.5 10C7.67157 10 7 10.8954 7 12C7 13.1046 7.67157 14 8.5 14Z" fill="black" fill-opacity="0.87"/>
<path d="M15.5 14C16.3284 14 17 13.1046 17 12C17 10.8954 16.3284 10 15.5 10C14.6716 10 14 10.8954 14 12C14 13.1046 14.6716 14 15.5 14Z" fill="black" fill-opacity="0.87"/>
<path d="M8 16H16V18H8V16Z" fill="black" fill-opacity="0.87"/>
</svg>
