<svg width="64" height="64" viewBox="0 0 64 64" fill="none" xmlns="http://www.w3.org/2000/svg">
<path fill-rule="evenodd" clip-rule="evenodd" d="M46.8476 43.4469L49.2156 38.8754H60.5116L63.9996 32L57.0236 18.2857H47.1996L43.8076 11.4834H39.9996V6.87543H46.2076L49.5996 13.7143H54.6876L47.6796 0H34.0156V18.2857H39.5516L41.8876 22.8571H34.0156V32H41.2476L44.6076 25.1611H53.5996L55.9036 29.7326H46.9436L43.5836 36.5714H34.0156V52.5897H44.8956L42.5916 57.1611H34.0156V64H47.6796L58.1756 43.4469H51.4876L49.1516 48.0183H39.9996V43.4469H46.8476Z" fill="#2196F3"/>
<path fill-rule="evenodd" clip-rule="evenodd" d="M17.152 43.4469L14.784 38.8754H3.488L0 32L6.976 18.2857H16.8L20.192 11.4834H24V6.87543H17.792L14.4 13.7143H9.312L16.32 0H30.016V18.2857H24.448L22.112 22.8571H30.016V32H22.752L19.392 25.1611H10.4L8.096 29.7326H17.056L20.416 36.5714H30.016V52.5897H19.104L21.408 57.1611H30.016V64H16.32L5.824 43.4469H12.512L14.848 48.0183H24V43.4469H17.152Z" fill="#0D47A1"/>
</svg>
