<svg width="64" height="13" viewBox="0 0 64 13" fill="none" xmlns="http://www.w3.org/2000/svg">
<path d="M6.67826 12H4.39281V7.72591L0.178087 0.899245H2.83455L5.5207 5.4553L8.20684 0.899245H10.8781L6.67826 7.72591V12Z" fill="black" fill-opacity="0.87"/>
<path d="M33.9826 0.735998C34.6553 0.735998 35.2885 0.834936 35.8822 1.03281C36.4758 1.22079 37.0051 1.49782 37.4701 1.86388C37.9351 2.22995 38.321 2.67517 38.6277 3.19953C38.9443 3.7239 39.152 4.31258 39.251 4.96556L36.8616 5.17333C36.7033 4.38183 36.362 3.78326 35.8376 3.37762C35.3232 2.97198 34.6801 2.76916 33.9084 2.76916C33.4236 2.76916 32.9783 2.8582 32.5727 3.03629C32.177 3.20448 31.8356 3.44688 31.5487 3.76348C31.2717 4.08008 31.054 4.46593 30.8957 4.92104C30.7473 5.37615 30.6731 5.88568 30.6731 6.44962C30.6731 7.05314 30.7572 7.58245 30.9254 8.03756C31.0936 8.49268 31.3212 8.87853 31.6081 9.19513C31.9049 9.50184 32.2512 9.73434 32.6469 9.89264C33.0427 10.0509 33.4681 10.1301 33.9232 10.1301C34.685 10.1301 35.3281 9.93221 35.8525 9.53646C36.3768 9.13082 36.7132 8.54214 36.8616 7.77043L39.2658 7.9782C39.157 8.63119 38.9443 9.21492 38.6277 9.72939C38.321 10.2439 37.9351 10.6841 37.4701 11.0502C37.015 11.4064 36.4906 11.6834 35.897 11.8813C35.3034 12.0693 34.6702 12.1632 33.9974 12.1632C33.1861 12.1632 32.4342 12.0346 31.7416 11.7774C31.0491 11.5103 30.4505 11.1343 29.9459 10.6495C29.4413 10.1548 29.0456 9.55625 28.7587 8.8538C28.4817 8.14145 28.3431 7.34006 28.3431 6.44962C28.3431 5.54929 28.4817 4.7479 28.7587 4.04545C29.0456 3.3331 29.4413 2.73453 29.9459 2.24974C30.4505 1.75505 31.0441 1.37909 31.7268 1.12185C32.4194 0.864617 33.1713 0.735998 33.9826 0.735998ZM43.1121 4.9804C43.2803 4.77264 43.5177 4.5896 43.8244 4.4313C44.141 4.26311 44.5516 4.17901 45.0562 4.17901C45.5014 4.17901 45.907 4.24827 46.2731 4.38678C46.6392 4.52529 46.9508 4.72812 47.2081 4.99525C47.4752 5.26238 47.683 5.59382 47.8314 5.98956C47.9798 6.37542 48.054 6.81569 48.054 7.31038V12H45.8873V7.72591C45.8873 7.23123 45.7636 6.85526 45.5162 6.59803C45.2788 6.3309 44.9523 6.19733 44.5368 6.19733C44.1014 6.19733 43.7552 6.34079 43.4979 6.62771C43.2407 6.90473 43.1121 7.27575 43.1121 7.74075V12H40.9453V0.468868H43.1121V4.9804ZM53.0881 4.17901C54.1269 4.17901 54.9184 4.4412 55.4626 4.96556C56.0067 5.48004 56.2788 6.2468 56.2788 7.26585V12H54.1863V11.3767C53.9686 11.6043 53.6965 11.7922 53.37 11.9406C53.0534 12.089 52.6725 12.1632 52.2273 12.1632C51.4556 12.1632 50.8372 11.9703 50.3722 11.5845C49.9072 11.1986 49.6747 10.6347 49.6747 9.89264C49.6747 9.46721 49.7588 9.11103 49.927 8.82412C50.0952 8.5273 50.3178 8.28985 50.5949 8.11177C50.8818 7.93368 51.2083 7.80506 51.5743 7.72591C51.9503 7.63687 52.3411 7.58245 52.7467 7.56267L54.1121 7.48846V7.19165C54.1121 6.40015 53.7806 6.00441 53.1178 6.00441C52.7418 6.00441 52.4697 6.10829 52.3015 6.31606C52.1333 6.52383 52.0492 6.75633 52.0492 7.01356L49.8825 6.92452C49.8825 6.58813 49.9567 6.25669 50.1051 5.9302C50.2535 5.60371 50.4662 5.31184 50.7433 5.05461C51.0203 4.78748 51.3567 4.57476 51.7524 4.41646C52.1482 4.25816 52.5934 4.17901 53.0881 4.17901ZM52.9545 8.98736C52.628 9.00715 52.3609 9.07641 52.1531 9.19513C51.9453 9.31385 51.8415 9.51173 51.8415 9.78875C51.8415 10.046 51.9256 10.229 52.0938 10.3379C52.2619 10.4368 52.4747 10.4863 52.7319 10.4863C53.1276 10.4863 53.4541 10.3824 53.7114 10.1746C53.9785 9.96684 54.1121 9.65519 54.1121 9.23965V8.91316L52.9545 8.98736ZM60.9928 9.04672C60.9928 9.47215 61.1065 9.77391 61.3341 9.952C61.5715 10.1202 61.8436 10.2043 62.1503 10.2043C62.3086 10.2043 62.4372 10.1993 62.5362 10.1894C62.645 10.1697 62.739 10.1499 62.8182 10.1301V12.0594C62.6599 12.0791 62.4917 12.0989 62.3136 12.1187C62.1454 12.1385 61.9129 12.1484 61.6161 12.1484C61.2005 12.1484 60.8196 12.0989 60.4733 12C60.1271 11.8912 59.8303 11.7329 59.5829 11.5251C59.3455 11.3173 59.1575 11.0502 59.019 10.7237C58.8903 10.3972 58.826 10.0114 58.826 9.56614L58.8409 6.19733H57.4459V4.32742H58.8557L58.8706 1.78968H61.0373L61.0224 4.32742H62.8182V6.19733H61.0076L60.9928 9.04672Z" fill="black" fill-opacity="0.87"/>
<line x1="11.1305" y1="6.02901" x2="26.7522" y2="6.02901" stroke="black" stroke-opacity="0.87" stroke-width="1.85507"/>
</svg>
